<svg width="28" height="28" fill="none" xmlns="http://www.w3.org/2000/svg"><g clip-path="url(#clip0)"><path fill-rule="evenodd" clip-rule="evenodd" d="M13.947 28h.012-.012zm.098 0h-.004.012-.008zm-.141 0h.013H13.904zm.187 0h-.008.013-.005zm-.228 0h.008H13.862zm.273 0h-.007.008-.001zm.045-.001h-.003.012-.01zm-.37 0h.011-.012zm.415 0h-.007.015-.008zm-.46 0h.015-.015zm.505-.002h-.01.014-.004zm-.546 0h.014-.014zm-.051 0h.012-.012zm.642 0h-.002.012-.01zm-.687-.002h.017-.017zm.732 0h-.007.017-.01zm.045 0h-.01l.016-.001h-.006zm-.818-.001h.017-.017zm-.04-.001h.012H13.54h.01zm.903 0h-.011.022-.01zm.045-.002h-.006.019-.013zm-1.005 0h.02-.02zm-.04-.002l.02.001H13.45zm1.09 0l-.011.001h.02-.01zm-1.13-.001h.019-.02zm1.175 0h-.016.02-.004zm-1.232-.003l.02.001h-.02zm1.277.001h-.006.021-.016zm-1.318-.003l.022.001h-.022zm1.362.001h-.01.022-.012zm-1.401-.003l.021.002-.015-.001h-.006zm1.446 0l-.015.002.021-.002h-.006zm.045-.002l-.02.002.018-.002h.02-.018zm-1.527 0l.017.002-.02-.002h-.018.02zm1.571-.002h-.008.022-.014zm-1.632 0h.022-.022zm-.04-.003l.023.001h-.014l-.008-.001zm1.717 0l-.014.001.022-.001h-.008zm-1.754-.003l.02.002-.019-.001-.018-.002.017.002zm1.799 0l-.019.002.02-.002h.017-.018zm.044-.002h-.007l.022-.001h-.015zm-1.9-.001l.02.001h-.006l-.015-.001zm-.04-.003l.02.001h-.01l-.01-.001zm1.985 0l-.012.001.021-.001h-.01zm-2.024-.003l.019.002-.015-.002h-.004zm2.068 0l-.015.002.02-.002h-.005zm-2.121-.004l.017.001h-.017zm2.165.001h-.004.017-.013zm.045-.003h-.008l.017-.001h-.01zm-2.25-.001l.016.001h-.008l-.009-.001zm-.04-.003h.014-.015zm2.334 0h-.01.014-.004zm-2.378-.004h.004-.004zm2.423 0h-.001.004-.003zm.044-.003h-.004l.01-.001h-.006zm-2.514-.001h.01-.01zm-.04-.004h.007-.008zm2.598 0h-.005.008-.003zm-3.486-.11C5.123 26.778 0 20.983 0 14 0 6.273 6.273 0 14 0s14 6.273 14 14c0 6.983-5.123 12.778-11.813 13.83v-9.783h3.263L20.07 14h-3.883v-2.626c0-1.107.543-2.187 2.282-2.187h1.765V5.742S18.632 5.47 17.1 5.47c-3.197 0-5.288 1.938-5.288 5.447V14H8.258v4.047h3.555v9.783z" fill="#000"/></g><defs><clipPath id="clip0"><path fill="#fff" d="M0 0h28v28H0z"/></clipPath></defs></svg>