<svg width="28" height="28" fill="none" xmlns="http://www.w3.org/2000/svg"><path fill-rule="evenodd" clip-rule="evenodd" d="M14 0c7.727 0 14 6.273 14 14s-6.273 14-14 14S0 21.727 0 14 6.273 0 14 0zm0 5.25c-2.376 0-2.674.01-3.608.053-.93.042-1.567.19-2.124.406a4.29 4.29 0 00-1.55 1.01 4.29 4.29 0 00-1.009 1.55c-.216.556-.364 1.192-.406 2.123-.043.934-.053 1.232-.053 3.608 0 2.376.01 2.674.053 3.608.042.931.19 1.567.406 2.124a4.29 4.29 0 001.01 1.55c.486.486.974.785 1.55 1.009.556.216 1.192.364 2.123.406.934.043 1.232.053 3.608.053 2.376 0 2.674-.01 3.608-.053.931-.042 1.567-.19 2.124-.406a4.29 4.29 0 001.55-1.01 4.29 4.29 0 001.009-1.55c.216-.556.364-1.192.406-2.123.043-.934.053-1.232.053-3.608 0-2.376-.01-2.674-.053-3.608-.042-.93-.19-1.567-.406-2.124a4.288 4.288 0 00-1.01-1.55 4.29 4.29 0 00-1.55-1.009c-.556-.216-1.192-.364-2.123-.406-.934-.043-1.232-.053-3.608-.053zm0 1.577c2.336 0 2.613.008 3.536.05.853.04 1.316.182 1.624.302.409.159.7.348 1.007.654.306.307.495.598.654 1.007.12.308.262.771.301 1.624.043.923.051 1.2.051 3.536 0 2.336-.008 2.613-.05 3.536-.04.853-.182 1.316-.302 1.624a2.71 2.71 0 01-.654 1.007 2.71 2.71 0 01-1.007.654c-.308.12-.771.262-1.624.301-.923.043-1.2.051-3.536.051-2.336 0-2.613-.008-3.536-.05-.853-.04-1.316-.182-1.624-.302a2.71 2.71 0 01-1.007-.654 2.711 2.711 0 01-.654-1.007c-.12-.308-.263-.771-.301-1.624-.043-.923-.051-1.2-.051-3.536 0-2.336.008-2.613.05-3.536.04-.853.182-1.316.302-1.624.159-.409.348-.7.654-1.007A2.71 2.71 0 018.84 7.18c.308-.12.771-.262 1.624-.301.923-.043 1.2-.051 3.536-.051zm0 2.68a4.493 4.493 0 100 8.986 4.493 4.493 0 000-8.986zm0 7.41a2.917 2.917 0 110-5.834 2.917 2.917 0 010 5.834zm5.72-7.588a1.05 1.05 0 11-2.1 0 1.05 1.05 0 012.1 0z" fill="#000"/></svg>