<svg width="28" height="28" fill="none" xmlns="http://www.w3.org/2000/svg"><g clip-path="url(#clip0)"><path d="M14 .03C6.268.03 0 6.3 0 14.03c0 5.932 3.69 11.002 8.898 13.042-.122-1.108-.233-2.811.049-4.02.254-1.093 1.641-6.96 1.641-6.96s-.419-.838-.419-2.078c0-1.947 1.129-3.4 2.534-3.4 1.194 0 1.771.897 1.771 1.972 0 1.201-.765 2.997-1.16 4.661-.33 1.394.7 2.53 2.074 2.53 2.488 0 4.4-2.624 4.4-6.41 0-3.353-2.408-5.696-5.847-5.696-3.984 0-6.322 2.987-6.322 6.075 0 1.203.464 2.494 1.042 3.195.114.139.131.26.097.402-.106.442-.342 1.393-.389 1.587-.06.256-.203.31-.468.187-1.748-.814-2.842-3.37-2.842-5.423 0-4.416 3.21-8.472 9.25-8.472 4.857 0 8.632 3.46 8.632 8.085 0 4.825-3.043 8.708-7.265 8.708-1.419 0-2.752-.736-3.209-1.607 0 0-.702 2.673-.872 3.328-.316 1.216-1.17 2.74-1.74 3.67 1.31.406 2.702.625 4.145.625 7.732 0 14-6.268 14-14s-6.268-14-14-14z" fill="#000"/></g><defs><clipPath id="clip0"><path fill="#fff" d="M0 0h28v28H0z"/></clipPath></defs></svg>