<svg width="28" height="28" fill="none" xmlns="http://www.w3.org/2000/svg"><g clip-path="url(#clip0)"><path fill-rule="evenodd" clip-rule="evenodd" d="M14.02 0C6.27 0 0 6.275 0 13.99S6.27 28 14.02 28C21.729 28 28 21.705 28 13.99 28 6.234 21.728 0 14.02 0zm.928 10.247V6.094h-2.546c-.118 1.829-1.144 3.94-3.595 4.578v2.618h2.228v4.837c0 3.02 1.827 4.283 4.279 4.283h2.723V19.2h-1.438c-1.016 0-1.65-.437-1.65-1.698v-4.211h2.97v-3.044h-2.97z" fill="#000"/></g><defs><clipPath id="clip0"><path fill="#fff" d="M0 0h28v28H0z"/></clipPath></defs></svg>