<svg width="60" height="55" viewBox="0 0 60 55" fill="none" xmlns="http://www.w3.org/2000/svg">
<path d="M42.5 25.2083V6.875H17.5V16.0417H7.5V48.125H27.5V38.9583H32.5V48.125H52.5V25.2083H42.5ZM17.5 43.5417H12.5V38.9583H17.5V43.5417ZM17.5 34.375H12.5V29.7917H17.5V34.375ZM17.5 25.2083H12.5V20.625H17.5V25.2083ZM27.5 34.375H22.5V29.7917H27.5V34.375ZM27.5 25.2083H22.5V20.625H27.5V25.2083ZM27.5 16.0417H22.5V11.4583H27.5V16.0417ZM37.5 34.375H32.5V29.7917H37.5V34.375ZM37.5 25.2083H32.5V20.625H37.5V25.2083ZM37.5 16.0417H32.5V11.4583H37.5V16.0417ZM47.5 43.5417H42.5V38.9583H47.5V43.5417ZM47.5 34.375H42.5V29.7917H47.5V34.375Z" fill="black"/>
</svg>
