<svg width="28" height="28" viewBox="0 0 28 28" fill="none" xmlns="http://www.w3.org/2000/svg">
<g clip-path="url(#clip0)">
<path fill-rule="evenodd" clip-rule="evenodd" d="M13.9465 27.9999L13.959 27.9999H13.9547L13.9465 27.9999ZM14.0453 27.9999H14.041L14.0535 27.9999L14.0453 27.9999ZM13.9038 27.9997L13.9173 27.9997H13.9095L13.9038 27.9997ZM14.0905 27.9997H14.0827L14.0963 27.9997L14.0905 27.9997ZM13.8625 27.9993L13.8715 27.9994L13.8643 27.9993H13.8625ZM14.1357 27.9993L14.1285 27.9994L14.1375 27.9993H14.1357ZM14.1809 27.9989L14.1777 27.9989L14.1899 27.9987L14.1809 27.9989ZM13.8101 27.9987L13.8223 27.9989L13.8191 27.9989L13.8101 27.9987ZM14.226 27.9982L14.2186 27.9983L14.2336 27.9981L14.226 27.9982ZM13.7664 27.9981L13.7814 27.9983L13.774 27.9982L13.7664 27.9981ZM14.271 27.9974L14.2611 27.9976L14.275 27.9973L14.271 27.9974ZM13.725 27.9973L13.7389 27.9976L13.729 27.9974L13.725 27.9973ZM13.6738 27.9963L13.6861 27.9966L13.6839 27.9965L13.6738 27.9963ZM14.3161 27.9965L14.3139 27.9966L14.3262 27.9963L14.3161 27.9965ZM13.6288 27.9951L13.6457 27.9956L13.6389 27.9954L13.6288 27.9951ZM14.3611 27.9954L14.3543 27.9956L14.3712 27.9951L14.3611 27.9954ZM14.4061 27.9942L14.3951 27.9945L14.4124 27.994L14.4061 27.9942ZM13.5876 27.994L13.6049 27.9945L13.5939 27.9942L13.5876 27.994ZM13.5482 27.9928L13.5605 27.9932L13.5489 27.9928L13.5383 27.9925L13.5482 27.9928ZM14.4511 27.9928L14.4395 27.9932L14.4518 27.9928L14.4617 27.9925L14.4511 27.9928ZM14.496 27.9914L14.4898 27.9916L14.5087 27.9909L14.496 27.9914ZM13.4913 27.9909L13.5102 27.9916L13.504 27.9914L13.4913 27.9909ZM13.4503 27.9894L13.4701 27.9901L13.4591 27.9897L13.4503 27.9894ZM14.5409 27.9897L14.5299 27.9901L14.5497 27.9894L14.5409 27.9897ZM13.4101 27.9878L13.4295 27.9886L13.4144 27.988L13.4101 27.9878ZM14.5856 27.988L14.5705 27.9886L14.5899 27.9878L14.5856 27.988ZM13.3538 27.9853L13.3746 27.9862L13.3695 27.9861L13.3538 27.9853ZM14.6305 27.9861L14.6254 27.9862L14.6462 27.9853L14.6305 27.9861ZM13.3134 27.9834L13.3349 27.9844L13.3248 27.984L13.3134 27.9834ZM14.6752 27.984L14.6651 27.9844L14.6866 27.9834L14.6752 27.984ZM13.2736 27.9814L13.2953 27.9825L13.28 27.9818L13.2736 27.9814ZM14.72 27.9818L14.7047 27.9825L14.7264 27.9814L14.72 27.9818ZM14.7647 27.9794L14.7449 27.9805L14.7625 27.9795L14.7831 27.9784L14.7647 27.9794ZM13.2375 27.9795L13.2551 27.9805L13.2353 27.9794L13.2169 27.9784L13.2375 27.9795ZM14.8093 27.9769L14.8006 27.9774L14.8228 27.9762L14.8093 27.9769ZM13.1772 27.9762L13.1994 27.9774L13.1907 27.9769L13.1772 27.9762ZM13.1377 27.9738L13.1599 27.9751L13.1461 27.9744L13.1377 27.9738ZM14.8539 27.9744L14.8401 27.9751L14.8623 27.9738L14.8539 27.9744ZM13.1001 27.9715L13.12 27.9727L13.1014 27.9716L13.0827 27.9704L13.1001 27.9715ZM14.8986 27.9716L14.88 27.9727L14.8999 27.9715L14.9173 27.9704L14.8986 27.9716ZM14.9431 27.9687L14.9364 27.9691L14.9576 27.9677L14.9431 27.9687ZM13.0424 27.9677L13.0636 27.9691L13.0569 27.9687L13.0424 27.9677ZM13.003 27.9649L13.0238 27.9664L13.0124 27.9657L13.003 27.9649ZM14.9876 27.9657L14.9762 27.9664L14.997 27.9649L14.9876 27.9657ZM12.9637 27.9622L12.9828 27.9635L12.9679 27.9625L12.9637 27.9622ZM15.0321 27.9625L15.0172 27.9635L15.0363 27.9622L15.0321 27.9625ZM12.9108 27.9582L12.9275 27.9594L12.9235 27.9592L12.9108 27.9582ZM15.0765 27.9592L15.0725 27.9594L15.0892 27.9582L15.0765 27.9592ZM15.1209 27.9557L15.1129 27.9563L15.1299 27.9549L15.1209 27.9557ZM12.8701 27.9549L12.8871 27.9563L12.8791 27.9557L12.8701 27.9549ZM12.8305 27.9517L12.8449 27.9529L12.8347 27.9521L12.8305 27.9517ZM15.1653 27.9521L15.1551 27.9529L15.1695 27.9517L15.1653 27.9521ZM12.7868 27.948L12.7911 27.9484L12.7904 27.9484L12.7868 27.948ZM15.2096 27.9484L15.2089 27.9484L15.2132 27.948L15.2096 27.9484ZM15.2539 27.9445L15.2499 27.9448L15.2598 27.9439L15.2539 27.9445ZM12.7402 27.9439L12.7501 27.9448L12.7461 27.9445L12.7402 27.9439ZM12.6991 27.9402L12.7065 27.9409L12.7019 27.9405L12.6991 27.9402ZM15.2981 27.9405L15.2935 27.9409L15.3009 27.9402L15.2981 27.9405ZM11.8125 27.8298C5.12318 26.7783 0 20.9827 0 14C0 6.2732 6.2732 0 14 0C21.7268 0 28 6.2732 28 14C28 20.9827 22.8768 26.7783 16.1875 27.8298V18.0469H19.4496L20.0703 14H16.1875V11.3739C16.1875 10.2667 16.7299 9.1875 18.469 9.1875H20.2344V5.74219C20.2344 5.74219 18.6322 5.46875 17.1005 5.46875C13.9026 5.46875 11.8125 7.40688 11.8125 10.9156V14H8.25781V18.0469H11.8125V27.8298Z" fill="black"/>
</g>
<defs>
<clipPath id="clip0">
<rect width="28" height="28" fill="white"/>
</clipPath>
</defs>
</svg>
