<svg width="28" height="28" viewBox="0 0 28 28" fill="none" xmlns="http://www.w3.org/2000/svg">
<g clip-path="url(#clip0)">
<path d="M13.9999 0.0305176C6.26795 0.0305176 0 6.29863 0 14.0304C0 19.9616 3.69004 25.0319 8.89804 27.0718C8.77554 25.9641 8.66502 24.2606 8.94666 23.0513C9.20095 21.9587 10.5883 16.0924 10.5883 16.0924C10.5883 16.0924 10.1694 15.2538 10.1694 14.0138C10.1694 12.0672 11.2977 10.6139 12.7027 10.6139C13.897 10.6139 14.4741 11.5107 14.4741 12.5859C14.4741 13.7872 13.7093 15.583 13.3145 17.2472C12.9848 18.6408 14.0134 19.7771 15.3877 19.7771C17.8761 19.7771 19.7888 17.1534 19.7888 13.3662C19.7888 10.0142 17.3801 7.67052 13.9409 7.67052C9.95745 7.67052 7.61923 10.6583 7.61923 13.746C7.61923 14.9494 8.0827 16.2396 8.66113 16.9409C8.77543 17.0796 8.79227 17.2011 8.75826 17.3425C8.65189 17.7848 8.4158 18.7356 8.36937 18.9302C8.30829 19.1865 8.16643 19.2409 7.9012 19.1174C6.15262 18.3035 5.05947 15.7472 5.05947 13.6939C5.05947 9.27757 8.26809 5.22195 14.3097 5.22195C19.1663 5.22195 22.9406 8.68252 22.9406 13.3075C22.9406 18.1325 19.8984 22.0155 15.6758 22.0155C14.2572 22.0155 12.9235 21.2785 12.4671 20.408C12.4671 20.408 11.765 23.081 11.5948 23.7361C11.2786 24.9522 10.4255 26.4764 9.85474 27.4062C11.1648 27.8118 12.5568 28.0305 13.9999 28.0305C21.7321 28.0305 28.0001 21.7626 28.0001 14.0304C28.0001 6.29863 21.7321 0.0305176 13.9999 0.0305176Z" fill="black"/>
</g>
<defs>
<clipPath id="clip0">
<rect width="28" height="28" fill="white"/>
</clipPath>
</defs>
</svg>
