<svg width="28" height="28" viewBox="0 0 28 28" fill="none" xmlns="http://www.w3.org/2000/svg">
<g clip-path="url(#clip0)">
<path fill-rule="evenodd" clip-rule="evenodd" d="M14.0205 0C6.26981 0 0 6.27517 0 13.9899C0 21.7046 6.26981 28 14.0205 28C21.7284 28 28 21.7046 28 13.9899C28 6.23394 21.7284 0 14.0205 0V0ZM14.9481 10.247V6.09416H12.402C12.2842 7.9228 11.2584 10.0344 8.80677 10.6717V13.2905H11.0353V18.1272C11.0353 21.1474 12.8623 22.41 15.3139 22.41H18.0366V19.2009H16.5985C15.5833 19.1996 14.9481 18.7627 14.9481 17.5021V13.2905H17.9189V10.247H14.9481Z" fill="black"/>
</g>
<defs>
<clipPath id="clip0">
<rect width="28" height="28" fill="white"/>
</clipPath>
</defs>
</svg>
